<mxfile host="app.diagrams.net" modified="2023-08-06T15:28:13.900Z" agent="Mozilla/5.0 (Windows NT 10.0; Win64; x64) AppleWebKit/537.36 (KHTML, like Gecko) Chrome/115.0.0.0 Safari/537.36 Edg/115.0.1901.188" etag="ad3AJGWenc1oFTBufS8Y" version="21.6.6" type="device">
  <diagram name="Page-1" id="929967ad-93f9-6ef4-fab6-5d389245f69c">
    <mxGraphModel dx="2758" dy="1528" grid="1" gridSize="10" guides="1" tooltips="1" connect="1" arrows="1" fold="1" page="1" pageScale="1.5" pageWidth="1169" pageHeight="826" background="none" math="0" shadow="0">
      <root>
        <mxCell id="0" style=";html=1;" />
        <mxCell id="1" style=";html=1;" parent="0" />
        <mxCell id="1672d66443f91eb5-23" value="Device: Apple iPhone" style="text;strokeColor=none;fillColor=none;html=1;fontSize=24;fontStyle=1;verticalAlign=middle;align=center;" parent="1" vertex="1">
          <mxGeometry x="122" y="70" width="1510" height="40" as="geometry" />
        </mxCell>
        <mxCell id="dMG7VF1PKtfQfZTWlvpk-70" value="" style="group" vertex="1" connectable="0" parent="1">
          <mxGeometry x="172" y="153" width="1410" height="932" as="geometry" />
        </mxCell>
        <mxCell id="dMG7VF1PKtfQfZTWlvpk-1" value="«interface»&lt;br style=&quot;border-color: var(--border-color);&quot;&gt;&lt;b style=&quot;border-color: var(--border-color);&quot;&gt;MusicPlayer&lt;/b&gt;" style="swimlane;fontStyle=0;childLayout=stackLayout;horizontal=1;startSize=40;fillColor=none;horizontalStack=0;resizeParent=1;resizeParentMax=0;resizeLast=0;collapsible=1;marginBottom=0;whiteSpace=wrap;html=1;" vertex="1" parent="dMG7VF1PKtfQfZTWlvpk-70">
          <mxGeometry x="289.55357142857144" y="245.121387283237" width="176.25" height="145.05202312138726" as="geometry" />
        </mxCell>
        <mxCell id="dMG7VF1PKtfQfZTWlvpk-4" value="+ selectMusic()" style="text;strokeColor=none;fillColor=none;align=left;verticalAlign=top;spacingLeft=4;spacingRight=4;overflow=hidden;rotatable=0;points=[[0,0.5],[1,0.5]];portConstraint=eastwest;whiteSpace=wrap;html=1;" vertex="1" parent="dMG7VF1PKtfQfZTWlvpk-1">
          <mxGeometry y="40" width="176.25" height="35.017341040462426" as="geometry" />
        </mxCell>
        <mxCell id="dMG7VF1PKtfQfZTWlvpk-2" value="+ play()" style="text;strokeColor=none;fillColor=none;align=left;verticalAlign=top;spacingLeft=4;spacingRight=4;overflow=hidden;rotatable=0;points=[[0,0.5],[1,0.5]];portConstraint=eastwest;whiteSpace=wrap;html=1;" vertex="1" parent="dMG7VF1PKtfQfZTWlvpk-1">
          <mxGeometry y="75.01734104046243" width="176.25" height="35.017341040462426" as="geometry" />
        </mxCell>
        <mxCell id="dMG7VF1PKtfQfZTWlvpk-3" value="+ pause()" style="text;strokeColor=none;fillColor=none;align=left;verticalAlign=top;spacingLeft=4;spacingRight=4;overflow=hidden;rotatable=0;points=[[0,0.5],[1,0.5]];portConstraint=eastwest;whiteSpace=wrap;html=1;" vertex="1" parent="dMG7VF1PKtfQfZTWlvpk-1">
          <mxGeometry y="110.03468208092485" width="176.25" height="35.017341040462426" as="geometry" />
        </mxCell>
        <mxCell id="dMG7VF1PKtfQfZTWlvpk-5" value="«interface»&lt;br style=&quot;border-color: var(--border-color);&quot;&gt;&lt;b style=&quot;border-color: var(--border-color);&quot;&gt;Component&lt;/b&gt;" style="html=1;whiteSpace=wrap;" vertex="1" parent="dMG7VF1PKtfQfZTWlvpk-70">
          <mxGeometry x="642.0535714285713" width="138.48214285714283" height="67.34104046242774" as="geometry" />
        </mxCell>
        <mxCell id="dMG7VF1PKtfQfZTWlvpk-34" style="edgeStyle=orthogonalEdgeStyle;rounded=0;orthogonalLoop=1;jettySize=auto;html=1;" edge="1" parent="dMG7VF1PKtfQfZTWlvpk-70" source="dMG7VF1PKtfQfZTWlvpk-1" target="dMG7VF1PKtfQfZTWlvpk-5">
          <mxGeometry relative="1" as="geometry">
            <Array as="points">
              <mxPoint x="377.67857142857144" y="175.08670520231215" />
              <mxPoint x="679.8214285714286" y="175.08670520231215" />
            </Array>
          </mxGeometry>
        </mxCell>
        <mxCell id="dMG7VF1PKtfQfZTWlvpk-35" value="Extends" style="edgeLabel;html=1;align=center;verticalAlign=middle;resizable=0;points=[];" vertex="1" connectable="0" parent="dMG7VF1PKtfQfZTWlvpk-34">
          <mxGeometry x="0.2438" y="2" relative="1" as="geometry">
            <mxPoint x="1" y="2" as="offset" />
          </mxGeometry>
        </mxCell>
        <mxCell id="dMG7VF1PKtfQfZTWlvpk-32" style="edgeStyle=orthogonalEdgeStyle;rounded=0;orthogonalLoop=1;jettySize=auto;html=1;" edge="1" parent="dMG7VF1PKtfQfZTWlvpk-70" source="dMG7VF1PKtfQfZTWlvpk-6" target="dMG7VF1PKtfQfZTWlvpk-5">
          <mxGeometry relative="1" as="geometry">
            <Array as="points">
              <mxPoint x="711.2946428571429" y="363.6416184971098" />
              <mxPoint x="711.2946428571429" y="363.6416184971098" />
            </Array>
          </mxGeometry>
        </mxCell>
        <mxCell id="dMG7VF1PKtfQfZTWlvpk-33" value="Extends" style="edgeLabel;html=1;align=center;verticalAlign=middle;resizable=0;points=[];" vertex="1" connectable="0" parent="dMG7VF1PKtfQfZTWlvpk-32">
          <mxGeometry x="-0.2358" relative="1" as="geometry">
            <mxPoint as="offset" />
          </mxGeometry>
        </mxCell>
        <mxCell id="dMG7VF1PKtfQfZTWlvpk-6" value="«interface»&lt;br style=&quot;border-color: var(--border-color);&quot;&gt;&lt;b style=&quot;border-color: var(--border-color);&quot;&gt;Telephone&lt;/b&gt;" style="swimlane;fontStyle=0;childLayout=stackLayout;horizontal=1;startSize=40;fillColor=none;horizontalStack=0;resizeParent=1;resizeParentMax=0;resizeLast=0;collapsible=1;marginBottom=0;whiteSpace=wrap;html=1;" vertex="1" parent="dMG7VF1PKtfQfZTWlvpk-70">
          <mxGeometry x="623.1696428571429" y="228.95953757225436" width="176.25" height="145.05202312138726" as="geometry" />
        </mxCell>
        <mxCell id="dMG7VF1PKtfQfZTWlvpk-7" value="+&amp;nbsp;call()" style="text;strokeColor=none;fillColor=none;align=left;verticalAlign=top;spacingLeft=4;spacingRight=4;overflow=hidden;rotatable=0;points=[[0,0.5],[1,0.5]];portConstraint=eastwest;whiteSpace=wrap;html=1;" vertex="1" parent="dMG7VF1PKtfQfZTWlvpk-6">
          <mxGeometry y="40" width="176.25" height="35.017341040462426" as="geometry" />
        </mxCell>
        <mxCell id="dMG7VF1PKtfQfZTWlvpk-8" value="+ answer()" style="text;strokeColor=none;fillColor=none;align=left;verticalAlign=top;spacingLeft=4;spacingRight=4;overflow=hidden;rotatable=0;points=[[0,0.5],[1,0.5]];portConstraint=eastwest;whiteSpace=wrap;html=1;" vertex="1" parent="dMG7VF1PKtfQfZTWlvpk-6">
          <mxGeometry y="75.01734104046243" width="176.25" height="35.017341040462426" as="geometry" />
        </mxCell>
        <mxCell id="dMG7VF1PKtfQfZTWlvpk-9" value="+ startMailVoice()" style="text;strokeColor=none;fillColor=none;align=left;verticalAlign=top;spacingLeft=4;spacingRight=4;overflow=hidden;rotatable=0;points=[[0,0.5],[1,0.5]];portConstraint=eastwest;whiteSpace=wrap;html=1;" vertex="1" parent="dMG7VF1PKtfQfZTWlvpk-6">
          <mxGeometry y="110.03468208092485" width="176.25" height="35.017341040462426" as="geometry" />
        </mxCell>
        <mxCell id="dMG7VF1PKtfQfZTWlvpk-36" style="edgeStyle=orthogonalEdgeStyle;rounded=0;orthogonalLoop=1;jettySize=auto;html=1;entryX=0.75;entryY=1;entryDx=0;entryDy=0;" edge="1" parent="dMG7VF1PKtfQfZTWlvpk-70" source="dMG7VF1PKtfQfZTWlvpk-10" target="dMG7VF1PKtfQfZTWlvpk-5">
          <mxGeometry relative="1" as="geometry">
            <mxPoint x="742.7678571428571" y="-94.27745664739884" as="targetPoint" />
            <Array as="points">
              <mxPoint x="1044.9107142857142" y="175.08670520231215" />
              <mxPoint x="746.5446428571429" y="175.08670520231215" />
            </Array>
          </mxGeometry>
        </mxCell>
        <mxCell id="dMG7VF1PKtfQfZTWlvpk-37" value="Extends" style="edgeLabel;html=1;align=center;verticalAlign=middle;resizable=0;points=[];" vertex="1" connectable="0" parent="dMG7VF1PKtfQfZTWlvpk-36">
          <mxGeometry x="0.1943" relative="1" as="geometry">
            <mxPoint x="-4" as="offset" />
          </mxGeometry>
        </mxCell>
        <mxCell id="dMG7VF1PKtfQfZTWlvpk-10" value="«interface»&lt;br style=&quot;border-color: var(--border-color);&quot;&gt;&lt;b style=&quot;border-color: var(--border-color);&quot;&gt;InternetBrowser&lt;/b&gt;" style="swimlane;fontStyle=0;childLayout=stackLayout;horizontal=1;startSize=40;fillColor=none;horizontalStack=0;resizeParent=1;resizeParentMax=0;resizeLast=0;collapsible=1;marginBottom=0;whiteSpace=wrap;html=1;" vertex="1" parent="dMG7VF1PKtfQfZTWlvpk-70">
          <mxGeometry x="956.7857142857143" y="245.121387283237" width="176.25" height="145.05202312138726" as="geometry" />
        </mxCell>
        <mxCell id="dMG7VF1PKtfQfZTWlvpk-11" value="+&amp;nbsp;displayPage()" style="text;strokeColor=none;fillColor=none;align=left;verticalAlign=top;spacingLeft=4;spacingRight=4;overflow=hidden;rotatable=0;points=[[0,0.5],[1,0.5]];portConstraint=eastwest;whiteSpace=wrap;html=1;" vertex="1" parent="dMG7VF1PKtfQfZTWlvpk-10">
          <mxGeometry y="40" width="176.25" height="35.017341040462426" as="geometry" />
        </mxCell>
        <mxCell id="dMG7VF1PKtfQfZTWlvpk-12" value="+ addNewTab()" style="text;strokeColor=none;fillColor=none;align=left;verticalAlign=top;spacingLeft=4;spacingRight=4;overflow=hidden;rotatable=0;points=[[0,0.5],[1,0.5]];portConstraint=eastwest;whiteSpace=wrap;html=1;" vertex="1" parent="dMG7VF1PKtfQfZTWlvpk-10">
          <mxGeometry y="75.01734104046243" width="176.25" height="35.017341040462426" as="geometry" />
        </mxCell>
        <mxCell id="dMG7VF1PKtfQfZTWlvpk-13" value="+ refreshPage()" style="text;strokeColor=none;fillColor=none;align=left;verticalAlign=top;spacingLeft=4;spacingRight=4;overflow=hidden;rotatable=0;points=[[0,0.5],[1,0.5]];portConstraint=eastwest;whiteSpace=wrap;html=1;" vertex="1" parent="dMG7VF1PKtfQfZTWlvpk-10">
          <mxGeometry y="110.03468208092485" width="176.25" height="35.017341040462426" as="geometry" />
        </mxCell>
        <mxCell id="dMG7VF1PKtfQfZTWlvpk-16" value="iPhone" style="swimlane;fontStyle=0;childLayout=stackLayout;horizontal=1;startSize=26;fillColor=none;horizontalStack=0;resizeParent=1;resizeParentMax=0;resizeLast=0;collapsible=1;marginBottom=0;whiteSpace=wrap;html=1;" vertex="1" parent="dMG7VF1PKtfQfZTWlvpk-70">
          <mxGeometry x="623.1696428571429" y="861.9653179190752" width="176.25" height="70.03468208092485" as="geometry" />
        </mxCell>
        <mxCell id="dMG7VF1PKtfQfZTWlvpk-28" style="edgeStyle=orthogonalEdgeStyle;rounded=0;orthogonalLoop=1;jettySize=auto;html=1;" edge="1" parent="dMG7VF1PKtfQfZTWlvpk-70" source="dMG7VF1PKtfQfZTWlvpk-20" target="dMG7VF1PKtfQfZTWlvpk-10">
          <mxGeometry relative="1" as="geometry" />
        </mxCell>
        <mxCell id="dMG7VF1PKtfQfZTWlvpk-29" value="Implements" style="edgeLabel;html=1;align=center;verticalAlign=middle;resizable=0;points=[];" vertex="1" connectable="0" parent="dMG7VF1PKtfQfZTWlvpk-28">
          <mxGeometry x="0.0364" y="3" relative="1" as="geometry">
            <mxPoint as="offset" />
          </mxGeometry>
        </mxCell>
        <mxCell id="dMG7VF1PKtfQfZTWlvpk-20" value="Macintosh" style="swimlane;fontStyle=0;childLayout=stackLayout;horizontal=1;startSize=26;fillColor=none;horizontalStack=0;resizeParent=1;resizeParentMax=0;resizeLast=0;collapsible=1;marginBottom=0;whiteSpace=wrap;html=1;" vertex="1" parent="dMG7VF1PKtfQfZTWlvpk-70">
          <mxGeometry x="1233.75" y="350.1734104046243" width="176.25" height="70.03468208092485" as="geometry" />
        </mxCell>
        <mxCell id="dMG7VF1PKtfQfZTWlvpk-25" style="edgeStyle=orthogonalEdgeStyle;rounded=0;orthogonalLoop=1;jettySize=auto;html=1;" edge="1" parent="dMG7VF1PKtfQfZTWlvpk-70" source="dMG7VF1PKtfQfZTWlvpk-21" target="dMG7VF1PKtfQfZTWlvpk-1">
          <mxGeometry relative="1" as="geometry" />
        </mxCell>
        <mxCell id="dMG7VF1PKtfQfZTWlvpk-26" value="Implements" style="edgeLabel;html=1;align=center;verticalAlign=middle;resizable=0;points=[];" vertex="1" connectable="0" parent="dMG7VF1PKtfQfZTWlvpk-25">
          <mxGeometry x="-0.1176" y="-3" relative="1" as="geometry">
            <mxPoint as="offset" />
          </mxGeometry>
        </mxCell>
        <mxCell id="dMG7VF1PKtfQfZTWlvpk-21" value="iPod" style="swimlane;fontStyle=0;childLayout=stackLayout;horizontal=1;startSize=26;fillColor=none;horizontalStack=0;resizeParent=1;resizeParentMax=0;resizeLast=0;collapsible=1;marginBottom=0;whiteSpace=wrap;html=1;" vertex="1" parent="dMG7VF1PKtfQfZTWlvpk-70">
          <mxGeometry y="387.88439306358384" width="176.25" height="70.03468208092485" as="geometry">
            <mxRectangle x="200" y="870" width="60" height="30" as="alternateBounds" />
          </mxGeometry>
        </mxCell>
        <mxCell id="dMG7VF1PKtfQfZTWlvpk-52" style="edgeStyle=orthogonalEdgeStyle;rounded=0;orthogonalLoop=1;jettySize=auto;html=1;exitX=0;exitY=0.5;exitDx=0;exitDy=0;entryX=0.5;entryY=1;entryDx=0;entryDy=0;" edge="1" parent="dMG7VF1PKtfQfZTWlvpk-70" source="dMG7VF1PKtfQfZTWlvpk-61" target="dMG7VF1PKtfQfZTWlvpk-1">
          <mxGeometry relative="1" as="geometry">
            <mxPoint x="377.67857142857144" y="404.04624277456645" as="targetPoint" />
          </mxGeometry>
        </mxCell>
        <mxCell id="dMG7VF1PKtfQfZTWlvpk-54" value="Implements" style="edgeLabel;html=1;align=center;verticalAlign=middle;resizable=0;points=[];" vertex="1" connectable="0" parent="dMG7VF1PKtfQfZTWlvpk-52">
          <mxGeometry x="-0.3395" y="-3" relative="1" as="geometry">
            <mxPoint x="-12" as="offset" />
          </mxGeometry>
        </mxCell>
        <mxCell id="dMG7VF1PKtfQfZTWlvpk-53" style="edgeStyle=orthogonalEdgeStyle;rounded=0;orthogonalLoop=1;jettySize=auto;html=1;" edge="1" parent="dMG7VF1PKtfQfZTWlvpk-70" source="dMG7VF1PKtfQfZTWlvpk-46" target="dMG7VF1PKtfQfZTWlvpk-10">
          <mxGeometry relative="1" as="geometry" />
        </mxCell>
        <mxCell id="dMG7VF1PKtfQfZTWlvpk-55" value="Implements" style="edgeLabel;html=1;align=center;verticalAlign=middle;resizable=0;points=[];" vertex="1" connectable="0" parent="dMG7VF1PKtfQfZTWlvpk-53">
          <mxGeometry x="-0.3143" y="3" relative="1" as="geometry">
            <mxPoint x="-39" y="3" as="offset" />
          </mxGeometry>
        </mxCell>
        <mxCell id="dMG7VF1PKtfQfZTWlvpk-46" value="«interface»&lt;br style=&quot;border-color: var(--border-color);&quot;&gt;&lt;b style=&quot;border-color: var(--border-color);&quot;&gt;Smartphone&lt;/b&gt;" style="html=1;whiteSpace=wrap;" vertex="1" parent="dMG7VF1PKtfQfZTWlvpk-70">
          <mxGeometry x="642.0535714285713" y="659.942196531792" width="138.48214285714283" height="67.34104046242774" as="geometry" />
        </mxCell>
        <mxCell id="dMG7VF1PKtfQfZTWlvpk-49" style="edgeStyle=orthogonalEdgeStyle;rounded=0;orthogonalLoop=1;jettySize=auto;html=1;entryX=0.5;entryY=1;entryDx=0;entryDy=0;" edge="1" parent="dMG7VF1PKtfQfZTWlvpk-70" source="dMG7VF1PKtfQfZTWlvpk-16" target="dMG7VF1PKtfQfZTWlvpk-46">
          <mxGeometry relative="1" as="geometry" />
        </mxCell>
        <mxCell id="dMG7VF1PKtfQfZTWlvpk-58" value="Implements" style="edgeLabel;html=1;align=center;verticalAlign=middle;resizable=0;points=[];" vertex="1" connectable="0" parent="dMG7VF1PKtfQfZTWlvpk-49">
          <mxGeometry x="-0.0671" y="1" relative="1" as="geometry">
            <mxPoint as="offset" />
          </mxGeometry>
        </mxCell>
        <mxCell id="dMG7VF1PKtfQfZTWlvpk-63" style="edgeStyle=orthogonalEdgeStyle;rounded=0;orthogonalLoop=1;jettySize=auto;html=1;entryX=0.495;entryY=1.038;entryDx=0;entryDy=0;entryPerimeter=0;" edge="1" parent="dMG7VF1PKtfQfZTWlvpk-70" source="dMG7VF1PKtfQfZTWlvpk-61" target="dMG7VF1PKtfQfZTWlvpk-9">
          <mxGeometry relative="1" as="geometry">
            <Array as="points">
              <mxPoint x="710.0357142857143" y="545.4624277456647" />
            </Array>
          </mxGeometry>
        </mxCell>
        <mxCell id="dMG7VF1PKtfQfZTWlvpk-64" value="Implements" style="edgeLabel;html=1;align=center;verticalAlign=middle;resizable=0;points=[];" vertex="1" connectable="0" parent="dMG7VF1PKtfQfZTWlvpk-63">
          <mxGeometry x="-0.3293" y="-1" relative="1" as="geometry">
            <mxPoint x="-4" y="-1" as="offset" />
          </mxGeometry>
        </mxCell>
        <mxCell id="dMG7VF1PKtfQfZTWlvpk-61" value="«interface»&lt;br style=&quot;border-color: var(--border-color);&quot;&gt;&lt;b style=&quot;border-color: var(--border-color);&quot;&gt;MobilePhone&lt;/b&gt;" style="html=1;whiteSpace=wrap;" vertex="1" parent="dMG7VF1PKtfQfZTWlvpk-70">
          <mxGeometry x="484.68750000000006" y="511.7919075144509" width="138.48214285714283" height="67.34104046242774" as="geometry" />
        </mxCell>
        <mxCell id="dMG7VF1PKtfQfZTWlvpk-56" style="edgeStyle=orthogonalEdgeStyle;rounded=0;orthogonalLoop=1;jettySize=auto;html=1;entryX=0.5;entryY=1;entryDx=0;entryDy=0;" edge="1" parent="dMG7VF1PKtfQfZTWlvpk-70" source="dMG7VF1PKtfQfZTWlvpk-46" target="dMG7VF1PKtfQfZTWlvpk-61">
          <mxGeometry relative="1" as="geometry" />
        </mxCell>
        <mxCell id="dMG7VF1PKtfQfZTWlvpk-57" value="Implements" style="edgeLabel;html=1;align=center;verticalAlign=middle;resizable=0;points=[];" vertex="1" connectable="0" parent="dMG7VF1PKtfQfZTWlvpk-56">
          <mxGeometry x="-0.1681" y="-1" relative="1" as="geometry">
            <mxPoint x="15" y="1" as="offset" />
          </mxGeometry>
        </mxCell>
        <mxCell id="dMG7VF1PKtfQfZTWlvpk-67" value="«interface»&lt;br style=&quot;border-color: var(--border-color);&quot;&gt;&lt;b style=&quot;border-color: var(--border-color);&quot;&gt;AppleDevice&lt;/b&gt;" style="html=1;whiteSpace=wrap;" vertex="1" parent="dMG7VF1PKtfQfZTWlvpk-70">
          <mxGeometry x="944.1964285714286" width="138.48214285714283" height="67.34104046242774" as="geometry" />
        </mxCell>
        <mxCell id="dMG7VF1PKtfQfZTWlvpk-68" style="edgeStyle=orthogonalEdgeStyle;rounded=0;orthogonalLoop=1;jettySize=auto;html=1;entryX=0;entryY=0.5;entryDx=0;entryDy=0;" edge="1" parent="dMG7VF1PKtfQfZTWlvpk-70" source="dMG7VF1PKtfQfZTWlvpk-5" target="dMG7VF1PKtfQfZTWlvpk-67">
          <mxGeometry relative="1" as="geometry" />
        </mxCell>
        <mxCell id="dMG7VF1PKtfQfZTWlvpk-69" value="Extends" style="edgeLabel;html=1;align=center;verticalAlign=middle;resizable=0;points=[];" vertex="1" connectable="0" parent="dMG7VF1PKtfQfZTWlvpk-68">
          <mxGeometry x="-0.1429" y="2" relative="1" as="geometry">
            <mxPoint x="14" y="2" as="offset" />
          </mxGeometry>
        </mxCell>
      </root>
    </mxGraphModel>
  </diagram>
</mxfile>
